<svg width="42" height="42" viewBox="0 0 42 42" fill="none" xmlns="http://www.w3.org/2000/svg">
<path d="M40.2501 22.75V19.25H34.8776C34.5609 16.7621 33.5818 14.405 32.0426 12.425L35.8751 8.6275L33.3726 6.125L29.5751 9.9575C27.5951 8.41825 25.2379 7.43913 22.7501 7.1225V1.75H19.2501V7.1225C16.7651 7.4375 14.4026 8.4175 12.4251 9.9575L8.62756 6.125L6.12506 8.6275L9.95756 12.425C8.41831 14.405 7.4392 16.7621 7.12256 19.25H1.75006V22.75H7.12256C7.43756 25.235 8.41756 27.5975 9.95756 29.575L6.12506 33.3725L8.62756 35.875L12.4251 32.0425C14.4026 33.5825 16.7651 34.5625 19.2501 34.8775V40.25H22.7501V34.8775C25.2351 34.5625 27.5976 33.5825 29.5751 32.0425L33.3726 35.875L35.8751 33.3725L32.0426 29.575C33.5818 27.595 34.5609 25.2379 34.8776 22.75H40.2501Z" fill="#101115"/>
</svg>
