<svg width="34" height="34" viewBox="0 0 34 34" fill="none" xmlns="http://www.w3.org/2000/svg">
<g filter="url(#filter0_d_27_12)">
<path d="M16 0L18.0895 5.16962L22.101 1.29682L21.9072 6.86938L27.1472 4.96304L24.7036 9.975L30.2658 10.3647L25.9949 13.9495L30.9178 16.5679L25.5581 18.1056L28.9904 22.5L23.4686 21.7248L24.8168 27.1353L20.0877 24.1811L19.1187 29.6722L16 25.05L12.8813 29.6722L11.9123 24.1811L7.18322 27.1353L8.53139 21.7248L3.00962 22.5L6.44188 18.1056L1.08217 16.5679L6.00506 13.9495L1.73415 10.3647L7.29644 9.975L4.85283 4.96304L10.0928 6.86938L9.89895 1.29682L13.9105 5.16962L16 0Z" fill="#101115"/>
</g>
<defs>
<filter id="filter0_d_27_12" x="0.0821838" y="0" width="33.8356" height="33.6722" filterUnits="userSpaceOnUse" color-interpolation-filters="sRGB">
<feFlood flood-opacity="0" result="BackgroundImageFix"/>
<feColorMatrix in="SourceAlpha" type="matrix" values="0 0 0 0 0 0 0 0 0 0 0 0 0 0 0 0 0 0 127 0" result="hardAlpha"/>
<feOffset dx="1" dy="2"/>
<feGaussianBlur stdDeviation="1"/>
<feComposite in2="hardAlpha" operator="out"/>
<feColorMatrix type="matrix" values="0 0 0 0 0 0 0 0 0 0 0 0 0 0 0 0 0 0 0.25 0"/>
<feBlend mode="normal" in2="BackgroundImageFix" result="effect1_dropShadow_27_12"/>
<feBlend mode="normal" in="SourceGraphic" in2="effect1_dropShadow_27_12" result="shape"/>
</filter>
</defs>
</svg>
